<?xml version="1.0" ?>

<!-- Uploaded to: SVG Repo, www.svgrepo.com, Generator: SVG Repo Mixer Tools -->
<svg width="800px" height="800px" viewBox="0 0 64 64" xmlns="http://www.w3.org/2000/svg">

<defs>

<style>.cls-1,.cls-7{fill:#e7aa90;}.cls-1,.cls-2,.cls-3,.cls-8{fill-opacity:0.99;}.cls-2{fill:#cb5769;}.cls-3{fill:#d57080;}.cls-4,.cls-8{fill:#e29375;}.cls-5{fill:#eaafa5;}.cls-6{fill:#f1cbc6;}</style>

</defs>

<g data-name="Winter Avatar" id="Winter_Avatar-45">

<path class="cls-1" d="M40.53,56h7.79a1.61,1.61,0,0,0,1.61-1.61V49.66a6.08,6.08,0,0,0-6.09-6.09H40.59L32,45.78l-8.59-2.21H20.16a6.08,6.08,0,0,0-6.09,6.09v4.73A1.61,1.61,0,0,0,15.68,56H35.27l2.63-1.46Z" id="path44461-8-1"/>

<path class="cls-2" d="M40.53,44.57V56H35.27V47Z" id="path61935-6"/>

<path class="cls-3" d="M23.41,43.57a8.59,8.59,0,0,0,17.18,0Z" id="path61053-3"/>

<path class="cls-4" d="M16.6,24.85l1,8c-.22,2-.45,3.86-.62,4.91a1.21,1.21,0,0,0,.38,1.1c3,2.11,10,1.51,10,1.51H36.6s7,.6,10-1.51a1.21,1.21,0,0,0,.39-1.1c-.18-1.05-.41-2.92-.63-4.91l1.06-8L32.48,15.67Z" id="path120224-9"/>

<path class="cls-5" d="M45.46,22.15H18.53c-.72.15-1.93,2.7-1.93,2.7a4.72,4.72,0,0,0,2.9,8.43h25a4.72,4.72,0,0,0,2.92-8.42S46.19,22.3,45.46,22.15Z" id="path71411-27-2"/>

<path class="cls-5" d="M27.39,40.42l.7,3.1c.33,2.14,1.74,3.9,3.91,3.9s3.57-1.76,3.9-3.9l.7-3.1-4.08-4.6Z" id="path71393-26-2"/>

<path class="cls-6" d="M45.46,24l.2,2.37a13.71,13.71,0,1,1-27.33,0L18.44,25l.09-1,8.19-8.52L40,17Z" id="path118751-8"/>

<path class="cls-5" d="M26.72,15.43l-.39.4L36.23,17l5.47,7,.2,2.37A13.72,13.72,0,0,1,30.12,41a14.47,14.47,0,0,0,1.88.13A13.71,13.71,0,0,0,45.66,26.32L45.46,24,40,17Z" id="path131872-9"/>

<path class="cls-4" d="M32.71,18.75c.6.66,6.51,7,12.75,5.2a4.67,4.67,0,0,1,1.95.91l-.25-3a15,15,0,0,0-6.89-11.42l-3.52.32Z" id="path18028-7"/>

<path class="cls-7" d="M32,8A15.09,15.09,0,0,0,16.85,21.83l-.25,3a4.7,4.7,0,0,1,1.93-.9l1-.09c.67-.07,1.38-.19,2-.29A27.64,27.64,0,0,0,40.27,10.41a14,14,0,0,0-1.91-1A15.28,15.28,0,0,0,32,8Z" id="path71397-29-3"/>

<path class="cls-8" d="M40.59,43.57l-.28.07a6.08,6.08,0,0,1,5.19,6v4.73A1.61,1.61,0,0,1,43.89,56h4.43a1.61,1.61,0,0,0,1.61-1.61V49.66a6.08,6.08,0,0,0-6.09-6.09Z" id="path69524"/>

<path d="M15.68,57H48.32a2.61,2.61,0,0,0,2.61-2.6V49.66a7.1,7.1,0,0,0-7.09-7.09h-6.7l.25-1.09c.4,0,.91,0,1.5,0,2.71,0,7-.34,8.93-2.33a1,1,0,0,0,.26-1,48.22,48.22,0,0,1-.66-4.78,5.7,5.7,0,0,0,2.79-4.88,5.76,5.76,0,0,0-1.83-4.17l-.22-2.64A16,16,0,0,0,32,7,16,16,0,0,0,15.85,21.75l-.21,2.63a5.66,5.66,0,0,0,.94,9.06,48.22,48.22,0,0,1-.66,4.78,1,1,0,0,0,.26,1c2,2,6.22,2.33,8.93,2.33.59,0,1.1,0,1.5,0l.25,1.09h-6.7a7.1,7.1,0,0,0-7.09,7.09V54.4A2.61,2.61,0,0,0,15.68,57Zm20.59-2V52.15a9.58,9.58,0,0,0,3.26-2.66V55ZM32,48.42a4.92,4.92,0,0,0,4.69-3.85h2.8a7.55,7.55,0,0,1-15,0h2.8A4.92,4.92,0,0,0,32,48.42Zm-12.67-22,.13-1.57A27.76,27.76,0,0,0,32.74,20C33.89,21.29,38,25.3,43.05,25.3a9.83,9.83,0,0,0,1.51-.13l.11,1.24a12.71,12.71,0,1,1-25.34,0ZM32,42.16a14.84,14.84,0,0,0,3.27-.38l-.35,1.59c-.22,1.41-1.11,3.05-2.92,3.05s-2.7-1.64-2.93-3.12l-.34-1.52A14.84,14.84,0,0,0,32,42.16Zm16.93,7.5V54.4a.61.61,0,0,1-.61.6H41.53V44.57h2.3A5.1,5.1,0,0,1,48.93,49.66ZM46,38.1c-1.24.88-3.47,1.23-5.51,1.35a14,14,0,0,0,2.32-2A14.76,14.76,0,0,0,45,34.25c.15,0,.3-.06.45-.08C45.75,36.38,45.91,37.51,46,38.1ZM46,32a14.9,14.9,0,0,0,.66-5.72l-.06-.74A3.72,3.72,0,0,1,46,32Zm.16-10,.11,1.24a5.94,5.94,0,0,0-.6-.18,1,1,0,0,0-.49,0h0c-5,1.46-9.52-2.79-10.84-4.17a24.93,24.93,0,0,0,6-7.17A13.91,13.91,0,0,1,46.16,21.91ZM32,9a14.38,14.38,0,0,1,6.62,1.6c-1.18,2.19-6.75,11.11-19.78,12.32a5.13,5.13,0,0,0-1.1.23l.1-1.24A14,14,0,0,1,32,9ZM17.4,25.5l-.06.74A14.9,14.9,0,0,0,18,32a3.72,3.72,0,0,1-.6-6.46Zm1.11,8.66a3.58,3.58,0,0,0,.45.09,14.69,14.69,0,0,0,4.54,5.2c-2-.12-4.26-.47-5.51-1.35C18.09,37.51,18.25,36.38,18.51,34.16Zm-3.44,15.5a5.1,5.1,0,0,1,5.09-5.09h2.3A9.6,9.6,0,0,0,32,53.16a9.47,9.47,0,0,0,2.27-.28V55H15.68a.61.61,0,0,1-.61-.6Z"/>

<path d="M27.46,29.79a1,1,0,0,0,1-1V27.43a1,1,0,0,0-2,0v1.36A1,1,0,0,0,27.46,29.79Z"/>

<path d="M36.54,29.79a1,1,0,0,0,1-1V27.43a1,1,0,0,0-2,0v1.36A1,1,0,0,0,36.54,29.79Z"/>

<path d="M27.29,33.89a1,1,0,0,0,.24,1.39,8.56,8.56,0,0,0,8.94,0,1,1,0,0,0,.24-1.38,1,1,0,0,0-1.39-.25,6.44,6.44,0,0,1-3.32.89,6.35,6.35,0,0,1-3.32-.89A1,1,0,0,0,27.29,33.89Z"/>

</g>

</svg>