<?xml version="1.0" ?>

<!-- Uploaded to: SVG Repo, www.svgrepo.com, Generator: SVG Repo Mixer Tools -->
<svg width="800px" height="800px" viewBox="0 0 64 64" xmlns="http://www.w3.org/2000/svg">

<defs>

<style>.cls-1{fill:#756e78;}.cls-2{fill:#665e66;}.cls-3{fill:#eaafa5;}.cls-4{fill:#f1cbc6;}.cls-5{fill:#544f57;}.cls-6{fill:#cb5769;}.cls-7{fill:#d57080;}</style>

</defs>

<g data-name="Winter Avatar" id="Winter_Avatar-30">

<path class="cls-1" d="M42.75,47.77c0-2.86-3.26-4.07-3.26-4.07h-15s-3.26,1.21-3.26,4.07l-.07,4.11,2.44,1.77,9.06-.93,8.41.7Z" id="path37315-2-9-3-0-0-84"/>

<path class="cls-2" d="M38.57,51.32a4.16,4.16,0,0,0,1-3.55h3.23a5.52,5.52,0,0,1,5.53,5.54v1a1.45,1.45,0,0,1-1.46,1.45H17.14a1.45,1.45,0,0,1-1.46-1.45v-1a5.52,5.52,0,0,1,5.53-5.54h3.23a4.16,4.16,0,0,0,.95,3.55s.95,1.31,6.62,1.31S38.57,51.32,38.57,51.32Z" id="path37815-7-81-6-6-4-8"/>

<path class="cls-3" d="M44.35,38.19a4.66,4.66,0,0,0,1-9.21H18.73a4.66,4.66,0,0,0,1,9.21Z" id="path114197-5-63"/>

<path class="cls-3" d="M27,43.14c.38,1.72.77,3.44,1.15,5.17.33,2.11,1.72,3.85,3.86,3.85s3.53-1.74,3.85-3.85c.33-1.45.65-2.9,1-4.35Z" id="path22987-6-4-8"/>

<path class="cls-4" d="M32,13.25A12.92,12.92,0,0,1,45,25.08l.51,6.25a13.53,13.53,0,1,1-27,0L19,25.08A12.92,12.92,0,0,1,32,13.25Z" id="path22985-3-8-5"/>

<path class="cls-3" d="M40.27,22.22a12.92,12.92,0,0,1,.57,2.87L41.16,29l.19,2.37A13.52,13.52,0,0,1,29.93,45.82,13.74,13.74,0,0,0,32,46,13.52,13.52,0,0,0,45.46,31.34L45.27,29Z" id="path101009-9-3-9-6"/>

<path class="cls-2" d="M39.68,15.73A12.83,12.83,0,0,1,45,25.08L45.27,29c-6.49,1.92-12.12-4.82-12.12-4.82l-.68-4.27Z" id="path66719-1"/>

<path class="cls-5" d="M32,13.25a13.73,13.73,0,0,0-2.05.16,13.13,13.13,0,0,1,5.64,2.32,12.83,12.83,0,0,1,5.27,9.36L41.16,29v.18a8.58,8.58,0,0,0,4.1-.18L45,25.09A12.92,12.92,0,0,0,32,13.25Z" id="path101011-3-6-2-1"/>

<path class="cls-1" d="M32,13.25A12.92,12.92,0,0,0,19,25.08L18.6,30h0A25.32,25.32,0,0,0,39.68,15.73,13.1,13.1,0,0,0,32,13.25Z" id="path22989-5-31-5"/>

<path class="cls-6" d="M25.15,13.41a3.13,3.13,0,1,1,5.53-2h0a2.83,2.83,0,0,1,0,.41l-.6,1.52Z" id="path138121"/>

<path class="cls-7" d="M32.1,11.73a15,15,0,0,0-13.19,7.78,2.44,2.44,0,0,0,2,3.59,49.19,49.19,0,0,0,21-2.77,2.32,2.32,0,0,0,1.12-3.85A15,15,0,0,0,32.1,11.73Z" id="path138123"/>

<path class="cls-6" d="M32.1,11.73a15.63,15.63,0,0,0-4,.52c4.49-1,9.58,2,12.21,4.7a2.32,2.32,0,0,1-1.12,3.85,51.76,51.76,0,0,1-7.31,2A52.55,52.55,0,0,0,42,20.33a2.32,2.32,0,0,0,1.12-3.85A15,15,0,0,0,32.1,11.73Z" id="path138125"/>

<path d="M28.5,33.77V32.43a1,1,0,0,0-2,0v1.34a1,1,0,0,0,2,0Z"/>

<path d="M36.46,31.43a1,1,0,0,0-1,1v1.34a1,1,0,0,0,2,0V32.43A1,1,0,0,0,36.46,31.43Z"/>

<path d="M35.25,38.55a6.52,6.52,0,0,1-6.54,0,1,1,0,0,0-1.39.25,1,1,0,0,0,.24,1.39,8.5,8.5,0,0,0,8.84,0,1,1,0,0,0-1.15-1.64Z"/>

<path d="M46.21,28.23,45.94,25a13.7,13.7,0,0,0-1.6-5.39,3.34,3.34,0,0,0,.32-.81,3.24,3.24,0,0,0-.83-3A16.11,16.11,0,0,0,32.1,10.73c-.16,0-.32,0-.48,0a4.12,4.12,0,0,0-8.2.63A4.17,4.17,0,0,0,23.78,13,15.74,15.74,0,0,0,18,19,3.32,3.32,0,0,0,18,22.22a3.24,3.24,0,0,0,.4.57A13.6,13.6,0,0,0,18,25l-.27,3.23a5.62,5.62,0,0,0,1.36,10.9,14.14,14.14,0,0,0,2.18,3.16,16.36,16.36,0,0,0,1.36,1.28,5.36,5.36,0,0,0-2.32,3.29,6.53,6.53,0,0,0-5.65,6.45v1a2.46,2.46,0,0,0,2.46,2.45H46.82a2.46,2.46,0,0,0,2.46-2.45v-1a6.53,6.53,0,0,0-5.65-6.45,5.36,5.36,0,0,0-2.32-3.29,16.36,16.36,0,0,0,1.36-1.28,14.47,14.47,0,0,0,2.18-3.16,5.62,5.62,0,0,0,1.36-10.9ZM20,25.17a10.39,10.39,0,0,1,.17-1.23,3.09,3.09,0,0,0,.67.15,42.1,42.1,0,0,0,4.21.21A49.65,49.65,0,0,0,32,23.79,24.33,24.33,0,0,1,19.7,28.86Zm15.68-2a53.6,53.6,0,0,0,6.62-1.86,4.74,4.74,0,0,0,.51-.24A11.74,11.74,0,0,1,44,25.17l.25,3c-4.27.76-8.12-2.49-9.62-4C35,23.84,35.34,23.49,35.69,23.13ZM25.42,11.4a2.13,2.13,0,0,1,2.13-2.12,2.11,2.11,0,0,1,2,1.67,15.92,15.92,0,0,0-4,1.18A2.24,2.24,0,0,1,25.42,11.4ZM19.79,20a14.09,14.09,0,0,1,22.58-2.82,1.22,1.22,0,0,1,.35,1.16,1.63,1.63,0,0,1-1.07,1.07,48.42,48.42,0,0,1-20.6,2.71,1.62,1.62,0,0,1-1.29-.81A1.36,1.36,0,0,1,19.79,20ZM16,33.54a3.64,3.64,0,0,1,1.56-3l-.06.69a14.55,14.55,0,0,0,.65,5.61A3.67,3.67,0,0,1,16,33.54ZM41.52,46.77h-2a1,1,0,0,0-1,1.21,3.12,3.12,0,0,1-.68,2.63,1,1,0,0,0,0,1.41,1,1,0,0,0,1.42,0,4.72,4.72,0,0,0,1.31-3.25h2.16a4.54,4.54,0,0,1,4.53,4.54v1a.46.46,0,0,1-.46.45H17.14a.45.45,0,0,1-.46-.45v-1a4.54,4.54,0,0,1,4.53-4.54h2.16A4.72,4.72,0,0,0,24.68,52a1,1,0,0,0,1.42,0,1,1,0,0,0,0-1.41A3.1,3.1,0,0,1,25.42,48a1,1,0,0,0-.2-.84,1,1,0,0,0-.78-.38h-2a4.33,4.33,0,0,1,2-1.94,14.9,14.9,0,0,0,2.15,1.08l.58,2.55c.43,2.81,2.37,4.7,4.84,4.7s4.41-1.89,4.83-4.64l.59-2.61a14.9,14.9,0,0,0,2.15-1.08A4.33,4.33,0,0,1,41.52,46.77ZM28.77,46.6a14.11,14.11,0,0,0,6.42,0l-.34,1.55c-.22,1.39-1.1,3-2.87,3s-2.65-1.62-2.88-3.07ZM41.2,40.93a12.53,12.53,0,0,1-21.71-9.51l.05-.53a26.36,26.36,0,0,0,13.51-5.38c1.47,1.5,5.23,4.81,9.82,4.81a9.47,9.47,0,0,0,1.49-.13l.11,1.23A12.38,12.38,0,0,1,41.2,40.93Zm4.6-4.07a14.36,14.36,0,0,0,.66-5.61l-.06-.69a3.63,3.63,0,0,1-.6,6.3Z"/>

</g>

</svg>