<?xml version="1.0" ?>

<!-- Uploaded to: SVG Repo, www.svgrepo.com, Generator: SVG Repo Mixer Tools -->
<svg width="800px" height="800px" viewBox="0 0 64 64" xmlns="http://www.w3.org/2000/svg">

<defs>

<style>.cls-1{fill:#e490d0;}.cls-2{fill:#eaaadd;}.cls-3{fill:#e29375;}.cls-4{fill:#756e78;}.cls-5{fill:#eaafa5;}.cls-6{fill:#f1cbc6;}.cls-7{fill:#e7aa90;}.cls-8{fill:#665e66;}</style>

</defs>

<g data-name="Winter Avatar" id="Winter_Avatar-48">

<path class="cls-1" d="M17.34,20.45l-1.51-10.3a1.87,1.87,0,0,1,2.65-2l7.77,3.65h11.5l7.77-3.65a1.87,1.87,0,0,1,2.65,2l-1.51,10.3Z" id="path3714-6"/>

<path class="cls-2" d="M16.06,28.65V26.7a15.94,15.94,0,1,1,31.88,0v1.95L32.32,35.09Z" id="path51134-3-5"/>

<path class="cls-3" d="M17.3,38.54s.73,8.37.29,10H46.41c-.44-1.66.29-10,.29-10L34.19,25.92Z" id="path44473-9-6"/>

<path class="cls-1" d="M47.54,38.54a2.42,2.42,0,0,0,2.3-2.3l.58-4.62a2.88,2.88,0,0,0-3-3H16.58a2.88,2.88,0,0,0-3,3l.58,4.62a2.42,2.42,0,0,0,2.3,2.3Z" id="path50555-2-6"/>

<path class="cls-4" d="M43.29,47.67c0-3-3.42-4.27-3.42-4.27H24.12s-3.41,1.26-3.41,4.27L20.64,52l2.56,1.86L32.7,55l8.81-1.44Z" id="path37315-2-9"/>

<path class="cls-5" d="M27.61,45.33l.67,3c.31,2,1.66,3.73,3.72,3.73s3.41-1.69,3.72-3.73l.67-3-5.1-5.61Z" id="path22987-26-9-2"/>

<path class="cls-6" d="M19.08,30.61,19,31.89a13.07,13.07,0,1,0,26.06,0l-.19-2.28-7.7-10.39L22,24.25Z" id="path99362-0-2-0"/>

<path class="cls-5" d="M40,23.09a12.5,12.5,0,0,1,.55,2.76l.31,3.76.19,2.28a13.08,13.08,0,0,1-11,14A12.81,12.81,0,0,0,32,46,13.07,13.07,0,0,0,45,31.89l-.19-2.28Z" id="path101009-9-7-2"/>

<path class="cls-3" d="M33.13,25s5.44,6.51,11.71,4.66l-.31-3.76a12.35,12.35,0,0,0-5.1-9L33.33,18Z" id="path113433-6-0-3"/>

<path class="cls-7" d="M32,14.42A12.49,12.49,0,0,0,19.47,25.85l-.39,4.76A24.45,24.45,0,0,0,39.43,16.82,12.61,12.61,0,0,0,32,14.42Z" id="path22989-64-8-3-7"/>

<path class="cls-8" d="M38.91,51.38a4.34,4.34,0,0,0,1-3.71h3.38a5.79,5.79,0,0,1,5.8,5.8v1A1.52,1.52,0,0,1,47.56,56H16.44a1.52,1.52,0,0,1-1.53-1.53v-1a5.79,5.79,0,0,1,5.8-5.8h3.38a4.34,4.34,0,0,0,1,3.71s1,1.37,6.94,1.37S38.91,51.38,38.91,51.38Z" id="path37815-7-81"/>

<path d="M27.07,34.34a1,1,0,0,0,1-1v-.7a1,1,0,0,0-2,0v.7A1,1,0,0,0,27.07,34.34Z"/>

<path d="M36.93,34.34a1,1,0,0,0,1-1v-.7a1,1,0,0,0-2,0v.7A1,1,0,0,0,36.93,34.34Z"/>

<path d="M35.14,38.84a6.16,6.16,0,0,1-3.14.83,6,6,0,0,1-3.14-.84,1,1,0,0,0-1.39.25,1,1,0,0,0,.24,1.39,8.27,8.27,0,0,0,8.58,0,1,1,0,1,0-1.15-1.63Z"/>

<path d="M13.17,36.37a3.38,3.38,0,0,0,3.21,3.16,64.63,64.63,0,0,1,.29,8.5,6.79,6.79,0,0,0-2.76,5.44v1A2.53,2.53,0,0,0,16.44,57H47.56a2.53,2.53,0,0,0,2.53-2.53v-1A6.79,6.79,0,0,0,47.33,48a64.67,64.67,0,0,1,.29-8.5,3.38,3.38,0,0,0,3.21-3.16l.59-4.63A3.48,3.48,0,0,0,50.55,29a4.25,4.25,0,0,0-1.61-1.1V26.7a16.76,16.76,0,0,0-1.25-6.35l1.47-10a2.93,2.93,0,0,0-.24-1.65,2.89,2.89,0,0,0-1.63-1.48,2.85,2.85,0,0,0-2.2.11l-7.41,3.48a16.63,16.63,0,0,0-11.36,0L18.91,7.28a2.85,2.85,0,0,0-2.2-.11,2.89,2.89,0,0,0-1.63,1.48,2.93,2.93,0,0,0-.24,1.65l1.47,10.05a16.76,16.76,0,0,0-1.25,6.35v1.21A4.25,4.25,0,0,0,13.45,29a3.48,3.48,0,0,0-.87,2.73Zm5.22,3.17h1.2a14,14,0,0,0,2.06,3c.23.25.48.48.72.71a5.71,5.71,0,0,0-2.54,3.56,6.85,6.85,0,0,0-1.11.24C18.77,44.76,18.54,41.39,18.39,39.54ZM32,45A12.06,12.06,0,0,1,20,32l0-.47a25.17,25.17,0,0,0,13-5.22c1.42,1.45,5.07,4.66,9.53,4.66a9.54,9.54,0,0,0,1.4-.11L44,32A12.06,12.06,0,0,1,32,45Zm3.06,1.66-.32,1.44C34.53,49.46,33.69,51,32,51s-2.53-1.55-2.75-2.94l-.31-1.38a13.94,13.94,0,0,0,6.12,0Zm8.71-17.87c-4.1.71-7.8-2.42-9.24-3.84a26.71,26.71,0,0,0,5.25-6.62,11.37,11.37,0,0,1,3.75,7.57Zm-23.59.64.29-3.53A11.44,11.44,0,0,1,32,15.42a11.73,11.73,0,0,1,6.17,1.73A23.31,23.31,0,0,1,20.18,29.46Zm27.91,25a.53.53,0,0,1-.53.53H16.44a.53.53,0,0,1-.53-.53v-1a4.8,4.8,0,0,1,4.8-4.8H23a5,5,0,0,0,1.36,3.42,1,1,0,0,0,1.42-1.42,3.38,3.38,0,0,1-.73-2.79,1,1,0,0,0-.2-.84,1,1,0,0,0-.78-.37H21.92A4.55,4.55,0,0,1,24,44.54,13.6,13.6,0,0,0,26.74,46l.55,2.45C27.71,51.17,29.6,53,32,53s4.29-1.84,4.7-4.51L37.26,46A13.92,13.92,0,0,0,40,44.54a4.49,4.49,0,0,1,2.1,2.13H39.91a1,1,0,0,0-1,1.21,3.38,3.38,0,0,1-.73,2.79,1,1,0,1,0,1.42,1.42A5,5,0,0,0,41,48.67h2.31a4.8,4.8,0,0,1,4.8,4.8Zm-3.92-7.71a5.71,5.71,0,0,0-2.54-3.56c.24-.23.49-.46.72-.71a14,14,0,0,0,2.06-3h1.2c-.15,1.85-.38,5.22-.33,7.46A6.85,6.85,0,0,0,44.17,46.76Zm5.26-15.27-.58,4.63a1.45,1.45,0,0,1-1.31,1.42H45.3A14,14,0,0,0,46,31.81l-.18-2.2h1.58a2.22,2.22,0,0,1,1.63.72A1.46,1.46,0,0,1,49.43,31.49ZM45.94,9.08a.91.91,0,0,1,.67,0,.87.87,0,0,1,.5.46.84.84,0,0,1,.07.5l-1.07,7.34a17.12,17.12,0,0,0-6-5.52Zm1,17.62v.91H45.68l-.16-1.84a13.58,13.58,0,0,0-27,0l-.16,1.84H17.06V26.7a14.94,14.94,0,1,1,29.88,0ZM16.82,10a.86.86,0,0,1,.57-1,.91.91,0,0,1,.67,0l5.84,2.75a17.2,17.2,0,0,0-6,5.52ZM15,30.33a2.22,2.22,0,0,1,1.63-.72h1.58L18,31.81a14,14,0,0,0,.72,5.73H16.46a1.45,1.45,0,0,1-1.31-1.42l-.58-4.63A1.46,1.46,0,0,1,15,30.33Z"/>

<path d="M42.34,32.24l-2-.27a1,1,0,0,0-.79.24,1,1,0,0,0-.34.75,2.25,2.25,0,1,1-4.49,0,1,1,0,0,0-1-1H30.29a1,1,0,0,0-1,1,2.25,2.25,0,1,1-4.49,0,1,1,0,0,0-1.13-1l-2,.27a1,1,0,0,0,.27,2l1-.14A4.24,4.24,0,0,0,31.17,34h1.66a4.24,4.24,0,0,0,8.22.12l1,.14a1,1,0,0,0,.27-2Z"/>

</g>

</svg>